<svg id="visual" viewBox="0 0 1280 540" width="1280" height="540" xmlns="http://www.w3.org/2000/svg" xmlns:xlink="http://www.w3.org/1999/xlink" version="1.1"><path d="M0 337L19.3 356.7C38.7 376.3 77.3 415.7 116.2 429.3C155 443 194 431 232.8 388.3C271.7 345.7 310.3 272.3 349 229.2C387.7 186 426.3 173 465.2 179C504 185 543 210 581.8 218.3C620.7 226.7 659.3 218.3 698.2 191.2C737 164 776 118 814.8 106.7C853.7 95.3 892.3 118.7 931 163.3C969.7 208 1008.3 274 1047.2 328.3C1086 382.7 1125 425.3 1163.8 380.3C1202.7 335.3 1241.3 202.7 1260.7 136.3L1280 70" fill="none" stroke-linecap="round" stroke-linejoin="miter" stroke="#FF834A" stroke-width="40"></path></svg>
