<svg id="visual" viewBox="0 0 841 345" width="841" height="345" xmlns="http://www.w3.org/2000/svg" xmlns:xlink="http://www.w3.org/1999/xlink" version="1.1"><rect x="0" y="0" width="841" height="345" fill="#fff0e9"></rect><defs><linearGradient id="grad1_0" x1="59%" y1="100%" x2="100%" y2="0%"><stop offset="1.246376811594203%" stop-color="#fff0e9" stop-opacity="1"></stop><stop offset="98.75362318840581%" stop-color="#fff0e9" stop-opacity="1"></stop></linearGradient></defs><defs><linearGradient id="grad2_0" x1="0%" y1="100%" x2="41%" y2="0%"><stop offset="1.246376811594203%" stop-color="#fff0e9" stop-opacity="1"></stop><stop offset="98.75362318840581%" stop-color="#fff0e9" stop-opacity="1"></stop></linearGradient></defs><g transform="translate(841, 345)"><path d="M-276 0C-275.3 -39 -274.7 -78 -255 -105.6C-235.3 -133.3 -196.7 -149.6 -167.6 -167.6C-138.5 -185.6 -118.9 -205.2 -92.6 -223.6C-66.3 -241.9 -33.1 -259 0 -276L0 0Z" fill="#ff8349"></path></g><g transform="translate(0, 0)"><path d="M276 0C264.5 33.8 253.1 67.6 239.3 99.1C225.5 130.6 209.3 159.9 187.4 187.4C165.5 214.9 137.8 240.5 105.6 255C73.4 269.5 36.7 272.7 0 276L0 0Z" fill="#ff8349"></path></g></svg>