<svg id="visual" viewBox="0 0 1280 540" width="1280" height="540" xmlns="http://www.w3.org/2000/svg" xmlns:xlink="http://www.w3.org/1999/xlink" version="1.1"><path d="M0 439L19.3 377.2C38.7 315.3 77.3 191.7 116.2 154.3C155 117 194 166 232.8 202C271.7 238 310.3 261 349 231C387.7 201 426.3 118 465.2 85.8C504 53.7 543 72.3 581.8 148.3C620.7 224.3 659.3 357.7 698.2 414.8C737 472 776 453 814.8 399C853.7 345 892.3 256 931 189.7C969.7 123.3 1008.3 79.7 1047.2 114C1086 148.3 1125 260.7 1163.8 268.3C1202.7 276 1241.3 179 1260.7 130.5L1280 82" fill="none" stroke-linecap="round" stroke-linejoin="miter" stroke="#27CC5E" stroke-width="40"></path></svg>