<svg xmlns="http://www.w3.org/2000/svg" version="1.1" viewBox="0 0 3000 2062" width="3000" height="2062">
<defs/><!--ITEM: Illustration background 1--><g transform="translate(1698.75 219.375) rotate(0.0 278.4375 263.4375)  scale(3.674869337979094 3.668126375003481)"><svg width="151.536" height="143.636" viewBox="0.0 0.0 151.536 143.636"><g>
	<g>
		<ellipse fill="#FFFFFF" cx="75.768" cy="71.818" rx="75.268" ry="71.318"/>
		<path d="M75.768,143.636C33.989,143.636,0,111.419,0,71.818S33.989,0,75.768,0    c41.779,0,75.769,32.218,75.769,71.818S117.547,143.636,75.768,143.636z M75.768,1C34.541,1,1,32.768,1,71.818    c0,39.049,33.541,70.817,74.768,70.817c41.228,0,74.769-31.769,74.769-70.817C150.536,32.768,116.995,1,75.768,1z" fill="#ff8349"/>
	</g>
	<g>
		<ellipse fill="#FFFFFF" cx="75.768" cy="71.818" rx="60.214" ry="57.054"/>
		<path d="M75.768,129.372c-33.478,0-60.714-25.818-60.714-57.554S42.29,14.263,75.768,14.263    c33.479,0,60.715,25.819,60.715,57.555S109.246,129.372,75.768,129.372z M75.768,15.263c-32.927,0-59.714,25.37-59.714,56.555    c0,31.184,26.787,56.554,59.714,56.554s59.715-25.37,59.715-56.554C135.482,40.634,108.694,15.263,75.768,15.263z" fill="#ff8349"/>
	</g>
	<g>
		<ellipse fill="#FFFFFF" cx="75.768" cy="71.818" rx="45.161" ry="42.791"/>
		<path d="M75.768,115.109c-25.177,0-45.66-19.42-45.66-43.291s20.483-43.291,45.66-43.291    c25.178,0,45.661,19.42,45.661,43.291S100.945,115.109,75.768,115.109z M75.768,29.527c-24.626,0-44.66,18.972-44.66,42.291    s20.034,42.291,44.66,42.291s44.661-18.972,44.661-42.291S100.393,29.527,75.768,29.527z" fill="#ff8349"/>
	</g>
	<g>
		<circle fill="#FFFFFF" cx="75.87" cy="72.107" r="24.908"/>
		<path d="M75.87,97.515c-14.01,0-25.408-11.398-25.408-25.408S61.86,46.7,75.87,46.7s25.407,11.397,25.407,25.407    S89.88,97.515,75.87,97.515z M75.87,47.7c-13.459,0-24.408,10.949-24.408,24.407c0,13.459,10.949,24.408,24.408,24.408    c13.458,0,24.407-10.949,24.407-24.408C100.277,58.649,89.328,47.7,75.87,47.7z" fill="#ff8349"/>
	</g>
</g>
</svg></g><!--ITEM: Illustration background 2--><g transform="translate(1070.625 731.25) rotate(0.0 192.1875 255.9375)  scale(3.117396593673966 3.123093349603417)"><svg width="123.3" height="163.9" viewBox="0.0 0.0 123.3 163.9"><g>
	<path fill="#FFFFFF" d="M99.9,72.8l-12.5-8V12.7c0-7.2-5.5-7.6-5.5-7.6c-0.4-2.7-2-4.6-3.9-4.6H60.4c-2.2,0-4,2.7-4,6v12v36.7   c0,3-8,12.1-8,12.1V29.6c0-0.6-0.5-1.1-1.1-1.1h-2.9c-0.6,0-1.1-0.5-1.1-1.1v-7.9c0-0.6-0.5-1.1-1.1-1.1H38c-2.1,0-3.7,2.8-3.7,6.3   v11.6c0,1.2-1,2.1-2.1,2.1h-2.7c-1.2,0-2.1,1-2.1,2.1v32.7l-8.5,14L5.2,94.5c-2.1,0-3.8,2.8-3.8,6.2s-0.9,62.7-0.9,62.7l121.9-2   l0.4-58L99.9,72.8z"/>
	<path fill="#1D2445" d="M0.5,163.9c-0.133,0-0.26-0.053-0.354-0.146c-0.096-0.096-0.148-0.226-0.146-0.361   c0.009-0.593,0.9-59.335,0.9-62.692c0-3.626,1.858-6.589,4.169-6.697l13.475-7.18L26.9,73.06V40.5c0-1.434,1.166-2.6,2.6-2.6h2.7   c0.772,0,1.6-0.643,1.6-1.6V24.7c0-3.877,1.806-6.8,4.2-6.8h4.2c0.882,0,1.6,0.718,1.6,1.6v7.9c0,0.325,0.275,0.6,0.601,0.6H47.3   c0.883,0,1.601,0.718,1.601,1.601v36.353c2.542-3.01,7-8.711,7-10.753V6.5c0-3.584,2.019-6.5,4.5-6.5H78   c2.06,0,3.806,1.899,4.333,4.663C83.667,4.93,87.9,6.283,87.9,12.7v51.827l12.27,7.853c0.051,0.032,0.095,0.073,0.131,0.121   l22.899,30.6c0.065,0.088,0.101,0.194,0.1,0.304l-0.399,58c-0.002,0.271-0.221,0.491-0.492,0.496l-121.9,2   C0.506,163.9,0.503,163.9,0.5,163.9z M29.5,38.9c-0.957,0-1.6,0.827-1.6,1.6v32.7c0,0.092-0.025,0.182-0.072,0.26l-8.5,14   c-0.047,0.076-0.113,0.14-0.192,0.182l-13.7,7.3C5.363,94.979,5.282,95,5.2,95c-1.789,0-3.3,2.61-3.3,5.7   c0,3.196-0.804,56.346-0.893,62.191l120.896-1.983l0.396-57.343L99.555,73.172l-12.424-7.951c-0.144-0.092-0.23-0.25-0.23-0.421   V12.7c0-6.658-4.831-7.086-5.036-7.101c-0.233-0.018-0.424-0.194-0.458-0.426C81.041,2.716,79.641,1,78,1H60.4   c-1.897,0-3.5,2.519-3.5,5.5v48.7c0,3.099-7.293,11.484-8.124,12.431c-0.139,0.157-0.359,0.21-0.553,0.138   c-0.194-0.073-0.323-0.26-0.323-0.468V29.6C47.9,29.275,47.625,29,47.3,29H44.4c-0.883,0-1.601-0.718-1.601-1.6v-7.9   c0-0.325-0.274-0.6-0.6-0.6H38c-1.765,0-3.2,2.602-3.2,5.8V36.3c0,1.434-1.166,2.6-2.6,2.6H29.5z"/>
</g>
</svg></g><!--ITEM: Illustration background 3--><g transform="translate(581.25 639.375) rotate(0.0 178.125 290.625)  scale(2.934514003294893 2.930647641616457)"><svg width="121.4" height="198.335" viewBox="0.0 0.0 121.4 198.335"><g>
	<path fill="#FFFFFF" d="M117.9,104.7l-14-24.1V61.3c0-1.1-0.2-2.2-0.7-3.2l-2.6-5.6c-0.5-1-0.7-2.1-0.7-3.1V28.6   c0-0.6-0.5-1.1-1.1-1.1h-4.9c-0.6,0-1.1,0.5-1.1,1.1v39.9c0,0.6-0.5,1.1-1,1.1l-4.9,8.6c-0.6,0-1-0.5-1-1.1V18   c0-0.8-0.4-1.5-1.1-1.9l-7.3-4c-0.4-0.2-0.7-0.6-0.9-1c-0.1-0.2-6.4-9.4-6.6-9.7c-0.4-0.6-1-0.9-1.7-0.9h-6.7   c-0.3,0-0.6,0.1-0.8,0.4c-0.1,0.1-8.9,8.1-9,8.2c-0.2,0.3-0.5,0.4-0.8,0.4h-6c-0.5,0-1,0.4-1,1L40.6,62c0,0.4-0.3,0.7-0.6,0.9   l-5.4,2.6c-0.3,0.1-0.5,0.4-0.6,0.7l-6.6,22.6c-0.1,0.5-0.5,0.8-1,0.8h-6.3c-2,0-3.8,0.8-5.2,2.3c-3.2,3.5-9.3,10.1-12.4,13.6   c-1.3,1.5-2,3.4-2,5.3c0,14.8,0.1,79.1,0.1,86.9c0,0.6,119.3-1,119.3-1c0.6,0,1-0.5,1-1.1l-1-83.5   C119.9,109.4,119.2,106.9,117.9,104.7z"/>
	<path fill="#1D2445" d="M8.593,198.334c-0.002,0,0,0-0.002,0c-8.491,0-8.491,0-8.491-0.635c0-3.28-0.018-16.557-0.038-31.94   C0.033,144.567,0,119.376,0,110.8c0-2.05,0.754-4.049,2.122-5.628c2.304-2.602,6.264-6.914,9.445-10.378l2.964-3.231   C16.035,89.951,17.96,89.1,20.1,89.1H26.4c0.273,0,0.459-0.146,0.51-0.398l6.61-22.643c0.174-0.524,0.507-0.896,0.92-1.033   l5.343-2.576c0.08-0.06,0.316-0.248,0.316-0.45l3.401-51.533C43.5,9.672,44.173,9,45,9h6c0.235,0,0.329-0.095,0.384-0.177   c0.112-0.126,1.238-1.151,4.596-4.208c2.076-1.889,4.147-3.773,4.441-4.045C60.69,0.202,61.106,0,61.6,0h6.7   c0.881,0,1.633,0.398,2.116,1.123c0.052,0.078,0.521,0.766,1.188,1.741c4.553,6.662,5.383,7.893,5.442,8.014   c0.188,0.376,0.43,0.651,0.677,0.775l7.316,4.009c0.854,0.487,1.36,1.359,1.36,2.338V77.1c0,0.206,0.079,0.422,0.249,0.53   l4.716-8.277C91.454,69.197,91.62,69.1,91.8,69.1c0.225,0,0.5-0.277,0.5-0.601V28.6C92.3,27.717,93.018,27,93.9,27H98.8   c0.883,0,1.601,0.718,1.601,1.601v20.8c0,0.723,0.112,1.808,0.646,2.876l2.606,5.613c0.494,0.986,0.747,2.139,0.747,3.411v19.165   l13.933,23.983c1.371,2.321,2.067,4.896,2.067,7.651l1,83.494c0,0.918-0.645,1.605-1.5,1.605   C119.061,197.211,35.019,198.334,8.593,198.334z M1.1,197.259c0.697,0.036,2.582,0.075,7.491,0.075   c26.414,0,110.457-1.123,111.303-1.135c0.351,0,0.507-0.311,0.507-0.6l-1-83.494c0-2.579-0.649-4.983-1.931-7.152l-14.002-24.103   c-0.044-0.076-0.067-0.163-0.067-0.251V61.3c0-1.116-0.218-2.117-0.647-2.977l-2.606-5.613C99.531,51.48,99.4,50.23,99.4,49.4V28.6   C99.4,28.275,99.125,28,98.8,28H93.9C93.575,28,93.3,28.275,93.3,28.6V68.5c0,0.739-0.526,1.399-1.188,1.563l-4.777,8.385   C87.246,78.603,87.08,78.7,86.9,78.7c-0.855,0-1.5-0.688-1.5-1.6V18c0-0.624-0.31-1.157-0.849-1.465l-7.292-3.996   c-0.547-0.272-0.905-0.812-1.107-1.215c-0.16-0.267-3.681-5.419-5.373-7.896c-0.67-0.98-1.143-1.672-1.195-1.751   C69.284,1.228,68.852,1,68.3,1h-6.7c-0.235,0-0.329,0.095-0.384,0.178c-0.112,0.126-1.229,1.144-4.563,4.178   c-1.962,1.785-4.172,3.797-4.475,4.075C51.909,9.798,51.493,10,51,10h-6c-0.24,0-0.5,0.191-0.5,0.5l-3.401,51.533   c0.001,0.316-0.142,0.829-0.821,1.283l-5.461,2.634c-0.163,0.06-0.277,0.214-0.342,0.407L27.88,88.941   C27.746,89.618,27.147,90.1,26.4,90.1H20.1c-1.855,0-3.527,0.74-4.834,2.141l-2.962,3.229c-3.179,3.462-7.135,7.77-9.43,10.36   C1.667,107.224,1,108.991,1,110.8c0,8.575,0.033,33.766,0.062,54.957C1.081,180.528,1.099,193.356,1.1,197.259z"/>
</g>
</svg></g><!--ITEM: Illustration background 4--><g transform="translate(-3.75 945.0) rotate(0.0 1501.875 559.6875)  scale(3.75 3.755031868500503)"><svg width="801.0" height="298.1" viewBox="0.0 0.0 801.0 298.1"><g enable-background="new    ">
	<path fill="#FFFFFF" d="M710.9,61.6c-2.4,0-4,0-5.6-1.4c-6.4-6.9-22.5-13.7-49.8-16.2c-3.5-0.3-6.6-0.5-9.2-0.5   c-10.4,0-13.7,1.7-14.9,2.9c-1.6,1.5-4,2.4-7.2,2.4l-20.1,1.5c-4.8,0.5-9.1,3.3-9.1,6.2c0,1.7,0,3-2,3c-4,0-8.3-1.7-17-8.7   c-14.5-11.1-22.5-14.3-30-14.3c-5.7,0.1-11.3,2.2-18.3,3.5c-5.6,1.2-9,1.6-11.7,1.5c-5.1-0.1-6.7-1.5-6.7-1.5s-8-8.8-17.7-9.8   c-9.6-1-33.8-15.7-70.7-24c-10.7-2.5-20.5-3.7-28.8-3.7c-21,0-33.8,5.2-33.8,5.2l-26.5,9.8c-2.4,1-3.6,1-6.6,1c-3.4,0-9-3-17.5-3   H253c-0.8,0-1.6,0-2.4,0c0,0-85.4-15-100.5-15c-5.4,0-82,18-82,18H0.5v278.653h800V61.5h-89.6V61.6z"/>
	<path d="M800.5,297.653H0.5c-0.276,0-0.5-0.224-0.5-0.5V18.5C0,18.223,0.224,18,0.5,18h67.542   c3.862-0.907,76.691-18,82.058-18c14.971,0,99.732,14.857,100.586,15.008L253,15h54.7c5.274,0,9.363,1.117,12.648,2.016   C322.361,17.565,323.95,18,325.2,18c2.983,0,4.1,0,6.407-0.962l26.519-9.807C358.241,7.184,371.244,2,392.1,2   c8.519,0,18.517,1.284,28.915,3.713c22.388,5.036,39.924,12.347,52.728,17.685c8.242,3.437,14.197,5.919,17.909,6.306   c9.775,1.008,17.683,9.592,18.019,9.96c-0.001,0-0.001,0-0.001,0c0.01,0,1.609,1.244,6.341,1.337   c0.267,0.01,0.529,0.015,0.801,0.015c2.605,0,5.932-0.464,10.785-1.504c2.524-0.469,4.844-1.036,7.086-1.584   c3.913-0.957,7.61-1.861,11.31-1.927c8.276,0,16.773,4.038,30.313,14.403C585.203,57.563,589.289,59,593,59   c1.428,0,1.5-0.643,1.5-2.5c0-3.091,4.372-6.158,9.548-6.697l20.115-1.502c2.943-0.001,5.314-0.784,6.896-2.266   c2.008-2.01,7.14-3.035,15.241-3.035c2.342,0,5.192,0.155,9.243,0.502c24.275,2.223,42.544,8.186,50.123,16.358   c1.361,1.188,2.734,1.238,4.934,1.24C710.684,61.037,710.788,61,710.9,61h89.6c0.276,0,0.5,0.224,0.5,0.5v235.653   C801,297.43,800.776,297.653,800.5,297.653z M1,296.653h799V62h-88.799c-0.084,0.063-0.188,0.101-0.301,0.101   c-2.432,0-4.188,0-5.93-1.524c-3.545-3.818-15.389-12.953-49.517-16.078C651.437,44.153,648.612,44,646.3,44   c-9.748,0-13.29,1.497-14.546,2.754c-1.781,1.67-4.389,2.546-7.554,2.546l-20.063,1.499c-4.594,0.479-8.637,3.144-8.637,5.701   c0,1.641,0,3.5-2.5,3.5c-3.928,0-8.194-1.474-17.313-8.811C560.304,39.414,552.692,37,546,37   c-3.579,0.063-7.223,0.954-11.081,1.897c-2.256,0.552-4.588,1.123-7.128,1.594c-5.432,1.165-8.996,1.613-11.81,1.509   c-5.213-0.103-6.94-1.562-7.011-1.624c-0.119-0.126-8.03-8.71-17.423-9.679c-3.858-0.401-9.87-2.908-18.19-6.377   c-12.771-5.323-30.26-12.615-52.566-17.633C410.463,4.275,400.543,3,392.1,3c-20.646,0-33.485,5.111-33.612,5.163l-26.515,9.806   C329.5,19,328.241,19,325.2,19c-1.385,0-3.031-0.45-5.115-1.02C316.857,17.098,312.84,16,307.7,16h-57.1   c-0.94-0.157-85.616-15-100.5-15c-5.281,0-81.12,17.807-81.886,17.986C68.177,18.996,68.139,19,68.1,19H1V296.653z" fill="#FFFFFF00"/>
</g>
<g enable-background="new    ">
	<path fill="#FFFFFF" d="M800.5,73.501v31l-88.6-2.9c-17.4,0-39.6-2.8-64-3c-14.8-0.1-30.2,1.3-46.3,3.7   c-57.8,8.9-107.5-1.7-172.1-1.7s-125.2-26.9-191.6-26.9s-170,10.7-170,10.7L0.5,89.501v-40l66.4-2.3c0,0,15.8-8.6,29-8.6   c13.2,0,21.5,6,28,6s18-1.9,33-3.8c24-3.1,58.6-7.2,77-7.2c19.6,0,77.9,12.7,97.2,23.5c8.7,4.6,21,5.5,35.8,5.5c11.9,0,25.4-1,40-1   c17.2,0,33.7-0.2,44.5-3.9c2.3-0.7,6.3-1.1,11.5-1.1c13.5-0.1,33.6,1.3,51,4.1c14.4,2.4,78,20.9,78,20.9c24.7,0,42.9-4,70-4   c24.7,0,26.2-8,50-8L800.5,73.501z"/>
	<path fill="#1D2445" d="M551.859,106.359c-18.617,0-36.909-1.201-56.275-2.473c-20.864-1.37-42.438-2.786-66.084-2.786   c-32.131,0-63.878-6.772-94.58-13.322C303.63,81.102,271.275,74.2,237.9,74.2c-65.615,0-168.913,10.591-169.949,10.697L0.538,90   c-0.135,0.012-0.275-0.036-0.377-0.133C0.058,89.773,0,89.64,0,89.501v-40c0-0.27,0.213-0.49,0.483-0.5l66.284-2.297   C68.178,45.955,83.29,38.1,95.9,38.1c7.84,0,14.02,2.111,18.985,3.808c3.444,1.177,6.418,2.192,9.015,2.192   c4.647,0,11.95-0.989,21.195-2.242c3.618-0.49,7.543-1.021,11.742-1.554c37.001-4.78,62.93-7.204,77.063-7.204   c19.236,0,77.642,12.482,97.444,23.563c9.036,4.777,22.429,5.437,35.556,5.437c5.637,0,11.616-0.224,17.946-0.461   c7.065-0.266,14.372-0.539,22.054-0.539c18.074,0,33.885-0.292,44.338-3.873c2.395-0.729,6.53-1.127,11.662-1.127   c0.446-0.003,0.904-0.005,1.367-0.005c14.673,0,34.187,1.613,49.712,4.11c14.057,2.344,75.576,20.192,77.992,20.895   c12.01-0.004,22.312-0.938,33.217-1.929c11.221-1.019,22.825-2.071,36.712-2.071c12.388,0,18.986-2.051,25.367-4.033   c6.276-1.95,12.767-3.967,24.633-3.967l88.622,3.901c0.267,0.012,0.478,0.231,0.478,0.499v31c0,0.136-0.055,0.265-0.152,0.359   c-0.097,0.094-0.2,0.15-0.364,0.141l-88.6-2.9c-8.248,0-17.705-0.638-27.718-1.313c-10.991-0.741-23.45-1.581-36.27-1.687   l-1.481-0.005c-13.408,0-28.043,1.21-44.742,3.699C586.102,105.193,569.807,106.359,551.859,106.359z M237.9,73.2   c33.481,0,65.888,6.914,97.229,13.6C365.78,93.339,397.475,100.1,429.5,100.1c23.678,0,45.27,1.418,66.149,2.788   c19.35,1.271,37.625,2.471,56.21,2.471c17.896,0,34.141-1.162,49.664-3.553c16.75-2.497,31.434-3.711,44.892-3.711   c0.496,0,0.993,0.002,1.488,0.005c12.851,0.105,25.324,0.947,36.33,1.689c9.995,0.674,19.437,1.311,27.667,1.311l88.1,2.884V73.979   l-88.122-3.88c-11.691,0.001-17.822,1.906-24.313,3.923C681.112,76.027,674.44,78.1,661.9,78.1   c-13.842,0-25.423,1.051-36.622,2.067C614.329,81.162,603.986,82.1,591.9,82.1c-0.047,0-0.095-0.007-0.14-0.02   c-0.636-0.186-63.736-18.52-77.942-20.888c-15.476-2.489-34.926-4.098-49.551-4.098c-0.461,0-0.916,0.002-1.363,0.005   c-5.039,0-9.072,0.383-11.358,1.078c-10.582,3.626-26.48,3.922-44.646,3.922c-7.664,0-14.96,0.273-22.017,0.538   c-6.34,0.237-12.329,0.462-17.984,0.462c-15.319,0-27.309-0.945-36.034-5.558C311.161,46.515,253.045,34.1,233.9,34.1   c-14.091,0-39.976,2.421-76.936,7.196c-4.197,0.531-8.12,1.063-11.735,1.553c-9.282,1.258-16.614,2.251-21.329,2.251   c-2.763,0-5.81-1.041-9.338-2.246C109.667,41.182,103.574,39.1,95.9,39.1c-12.923,0-28.604,8.453-28.761,8.539   c-0.068,0.037-0.144,0.058-0.222,0.061L1,49.984v38.978l66.862-5.061C68.885,83.796,172.234,73.2,237.9,73.2z"/>
</g>
<g>
	<path fill="#FFFFFF" d="M711.9,101.6l88.6,2.9v193.1H0.5V89.5l67.4-5.1c0,0,103.6-10.7,170-10.7s127,26.9,191.6,26.9   s114.3,10.6,172.1,1.7c16.1-2.4,31.5-3.8,46.3-3.7C672.3,98.8,694.5,101.6,711.9,101.6z"/>
	<path d="M801,298.1H0V89.036l67.862-5.135C68.885,83.796,172.234,73.2,237.9,73.2   c33.481,0,65.888,6.914,97.229,13.6C365.78,93.339,397.475,100.1,429.5,100.1c23.677,0,45.269,1.417,66.149,2.788   c19.349,1.271,37.625,2.47,56.206,2.47c17.896,0,34.143-1.162,49.668-3.553c17.378-2.59,32.48-3.776,46.38-3.705   c12.853,0.104,25.329,0.946,36.336,1.689c9.993,0.674,19.433,1.311,27.661,1.311l89.1,2.915V298.1z M1,297.1h799V104.983   l-88.116-2.883c-8.246,0-17.701-0.638-27.712-1.313c-10.993-0.741-23.453-1.582-36.275-1.687c-0.498-0.003-0.995-0.005-1.494-0.005   c-13.396,0-28.027,1.21-44.729,3.698c-15.573,2.398-31.869,3.564-49.817,3.564c-18.614,0-36.906-1.201-56.271-2.472   c-20.864-1.37-42.439-2.786-66.084-2.786c-32.131,0-63.878-6.772-94.58-13.322C303.63,81.102,271.275,74.2,237.9,74.2   c-65.615,0-168.913,10.591-169.949,10.697L1,89.964V297.1z" fill="#FFFFFF00"/>
</g>
</svg></g><!--ITEM: Illustration component 5--><g transform="translate(247.5 750.0) rotate(0.0 86.25 174.375)  scale(3.7663755458515285 3.7419527896995706)"><svg width="45.8" height="93.2" viewBox="0.0 0.0 45.8 93.2"><g>
	<path fill="#FFFFFF" d="M18.3,61v31.7c3.2-0.4,6.5-0.8,10-1.3V73.7c3.2-0.4,7.4-1.6,10.7-4.7c6.4-5.9,6.3-20.1,6.3-21.7   c0-2.3-1.5-4-3.8-4h-0.2c-2.3,0-4,1.9-4,4.2c0,4.9-1.2,12.8-3.9,15.3c-1.5,1.3-3.4,2-5.1,2.4V5.6c0-2.8-2.2-5.1-5-5.1s-5,2.3-5,5.1   v46.6c-1.8-0.7-3.8-1.9-5.2-4.2C10,43.3,8.9,34.5,8.9,27.5c0-2.3-1.9-4.2-4.2-4.2l0,0c-2.3,0-4.2,1.9-4.2,4.2   c0,2.1,0.2,16.8,5.6,25.1C9.6,58.1,14.7,60.2,18.3,61z"/>
	<path fill="#1D2445" d="M18.3,93.2c-0.121,0-0.239-0.044-0.331-0.125C17.862,92.98,17.8,92.843,17.8,92.7V61.397   c-3.7-0.893-8.668-3.102-12.122-8.528C0.159,44.387,0,29.203,0,27.5C0,24.909,2.109,22.8,4.7,22.8c2.592,0,4.7,2.108,4.7,4.699   c0,6.76,1.082,15.622,4.117,20.225c1.002,1.645,2.404,2.863,4.283,3.722V5.6C17.8,2.512,20.268,0,23.3,0   c3.033,0,5.5,2.513,5.5,5.601v58.956c1.76-0.483,3.194-1.2,4.272-2.134C35.64,60.046,36.8,52.262,36.8,47.5   c0-2.635,1.977-4.699,4.5-4.699h0.2c2.531,0,4.3,1.851,4.3,4.5c0.004,4.891-0.618,16.681-6.461,22.066   c-3.345,3.143-7.498,4.334-10.539,4.771V91.4c0,0.249-0.183,0.46-0.43,0.495c-3.04,0.435-5.934,0.794-8.731,1.142l-1.277,0.159   C18.341,93.199,18.321,93.2,18.3,93.2z M4.7,23.8C2.659,23.8,1,25.46,1,27.5c0,1.673,0.155,16.584,5.519,24.828   c3.396,5.336,8.34,7.396,11.89,8.184C18.637,60.562,18.8,60.765,18.8,61v31.134l0.716-0.089c2.661-0.331,5.408-0.673,8.284-1.078   V73.7c0-0.252,0.188-0.465,0.438-0.496c2.923-0.365,7.104-1.454,10.419-4.568c5.711-5.265,6.146-17.605,6.143-21.262   c0-2.167-1.326-3.573-3.3-3.573h-0.2c-1.963,0-3.5,1.625-3.5,3.699c0,4.604-1.103,12.929-4.061,15.668   c-1.336,1.158-3.124,2.002-5.325,2.519c-0.15,0.038-0.306,0.001-0.425-0.095c-0.12-0.095-0.189-0.239-0.189-0.392V5.6   C27.8,3.063,25.782,1,23.3,1S18.8,3.063,18.8,5.6v46.6c0,0.165-0.081,0.319-0.218,0.413c-0.136,0.093-0.311,0.114-0.464,0.053   c-2.437-0.948-4.218-2.39-5.445-4.406C8.708,42.251,8.4,30.85,8.4,27.5C8.4,25.46,6.74,23.8,4.7,23.8z"/>
</g>
</svg></g><!--ITEM: Illustration background 6--><g transform="translate(320.625 1301.25) rotate(0.0 1133.4375 195.9375)  scale(4.084518335399429 4.087992906321719)"><svg width="554.992" height="95.86" viewBox="0.0 0.0 554.992 95.86"><g>
	<g>
		<path fill="#FFFFFF" d="M258.683,51.26l-1.7,0.2c-0.2,0-0.3,0-0.5,0l-4-0.5c-0.5-0.1-1-0.3-1.3-0.7l-0.2-0.2    c-0.7-0.9-0.6-2.2,0.3-2.9l1.7-1.2c0.3-0.2,0.7-0.4,1.1-0.4l2.1-0.1c0.4,0,0.8,0.1,1.1,0.3l2.2,1.3c0.5,0.3,0.9,0.9,1,1.5l0.1,0.5    C260.583,50.16,259.783,51.16,258.683,51.26z"/>
		<path fill="#1D2445" d="M256.983,51.96h-0.5l-4.062-0.504c-0.767-0.152-1.306-0.452-1.638-0.896l-0.153-0.146    c-0.462-0.587-0.658-1.254-0.594-1.926c0.065-0.69,0.4-1.302,0.941-1.722l1.718-1.214c0.492-0.329,0.956-0.492,1.389-0.492    l2.076-0.099c0.001,0,0.002,0,0.003,0c0.54,0,1.027,0.136,1.398,0.383l2.177,1.285c0.629,0.377,1.114,1.103,1.239,1.849    l0.097,0.483c0.01,1.492-1.024,2.677-2.345,2.797l-1.687,0.198C257.022,51.959,257.003,51.96,256.983,51.96z M256.184,45.96    l-2.076,0.099c-0.249,0.001-0.541,0.113-0.846,0.317l-1.689,1.192c-0.303,0.236-0.501,0.601-0.541,1.014    c-0.04,0.417,0.083,0.832,0.347,1.17l0.159,0.154c0.228,0.295,0.563,0.467,1.045,0.563l3.963,0.494l0.406-0.004l1.673-0.196    c0.824-0.075,1.458-0.823,1.458-1.704l-0.09-0.401c-0.079-0.472-0.393-0.945-0.767-1.17l-2.197-1.298    C256.801,46.039,256.5,45.96,256.184,45.96z"/>
	</g>
	<g>
		<path fill="#FFFFFF" d="M552.683,31.26l-1.7,0.2c-0.2,0-0.3,0-0.5,0l-4-0.5c-0.5-0.1-1-0.3-1.3-0.7l-0.2-0.2    c-0.8-0.9-0.6-2.2,0.3-2.9l1.6-1.2c0.3-0.2,0.7-0.4,1.1-0.4l2-0.1c0.4,0,0.8,0.1,1.2,0.3l2.2,1.3c0.6,0.3,0.9,0.9,1,1.5l0.1,0.5    C554.583,30.16,553.783,31.16,552.683,31.26z"/>
		<path fill="#1D2445" d="M550.984,31.96h-0.5l-4.063-0.504c-0.766-0.152-1.305-0.452-1.638-0.896l-0.154-0.148    c-0.479-0.537-0.699-1.194-0.637-1.871c0.063-0.691,0.422-1.339,0.984-1.775l1.606-1.206c0.504-0.337,0.967-0.5,1.399-0.5    l1.976-0.099c0.001,0,0.002,0,0.004,0c0.501,0,0.979,0.118,1.444,0.352l2.23,1.316c0.645,0.321,1.096,0.983,1.239,1.849    l0.097,0.484c0.068,0.718-0.13,1.369-0.552,1.889c-0.427,0.524-1.027,0.847-1.693,0.907l-1.686,0.198    C551.023,31.959,551.003,31.96,550.984,31.96z M549.983,25.96l-1.976,0.099c-0.249,0.001-0.541,0.113-0.847,0.317l-1.577,1.185    c-0.338,0.262-0.557,0.654-0.596,1.072c-0.036,0.397,0.095,0.786,0.369,1.095l0.181,0.18c0.227,0.294,0.563,0.466,1.045,0.563    l3.964,0.494l0.405-0.004l1.673-0.196c0.408-0.037,0.766-0.23,1.021-0.544c0.256-0.315,0.377-0.711,0.34-1.114l-0.092-0.448    c-0.055-0.329-0.219-0.894-0.733-1.15l-2.23-1.316C550.632,26.043,550.304,25.96,549.983,25.96z"/>
	</g>
	<g>
		<path fill="#FFFFFF" d="M51.283,34.46c0.2,0,0.3,0,0.5,0l3.8-0.5c0.5-0.1,0.9-0.3,1.2-0.7l0.2-0.2c0.7-0.9,0.6-2.3-0.3-3l-1.7-1.4    c-0.2-0.2-0.4-0.3-0.7-0.4l-2.8-0.7c-0.5-0.1-0.9-0.1-1.4,0.2l-2.5,1.5c-0.4,0.3-0.8,0.7-0.9,1.2l-0.3,0.8    C46.083,32.46,51.283,34.46,51.283,34.46z"/>
		<path fill="#1D2445" d="M51.784,34.96h-0.5c-0.062,0-0.122-0.012-0.18-0.033c-2.096-0.807-5.56-2.37-5.206-3.788l0.317-0.854    c0.086-0.465,0.443-0.956,1.068-1.425l2.542-1.528c0.562-0.336,1.096-0.392,1.755-0.262l2.824,0.705    c0.374,0.123,0.655,0.255,0.933,0.532l1.664,1.367c0.53,0.412,0.864,1.042,0.93,1.766c0.063,0.692-0.139,1.395-0.554,1.928    l-0.24,0.246c-0.309,0.419-0.786,0.702-1.456,0.837l-3.833,0.506C51.827,34.959,51.806,34.96,51.784,34.96z M51.377,33.96h0.374    l3.767-0.496c0.393-0.08,0.662-0.232,0.866-0.504l0.246-0.254c0.22-0.288,0.346-0.733,0.306-1.176    c-0.041-0.445-0.239-0.827-0.559-1.076l-1.711-1.408c-0.163-0.159-0.285-0.227-0.54-0.312l-2.764-0.689    c-0.327-0.063-0.665-0.069-1.021,0.144l-2.5,1.5c-0.371,0.281-0.61,0.584-0.667,0.87l-0.322,0.877    C46.933,31.832,49.07,33.062,51.377,33.96z"/>
	</g>
	<g>
		<path fill="#FFFFFF" d="M115.283,7.46c0.2,0,0.3,0,0.5,0l3.8-0.5c0.5-0.1,0.9-0.3,1.3-0.7l0.2-0.2c0.7-0.9,0.6-2.3-0.3-3    c0,0-2.2-1.7-2.4-1.8l-2.8-0.7c-0.5-0.1-0.9-0.1-1.4,0.2l-2.5,1.5c-0.4,0.3-0.8,0.7-0.9,1.2l-0.3,0.8    C110.083,5.46,115.283,7.46,115.283,7.46z"/>
		<path fill="#1D2445" d="M115.784,7.96h-0.5c-0.062,0-0.122-0.012-0.18-0.033c-2.108-0.812-5.574-2.387-5.095-3.825l0.306-0.817    c0.086-0.464,0.442-0.955,1.068-1.425l2.542-1.528c0.562-0.337,1.096-0.392,1.755-0.262l2.823,0.705    c0.035,0.009,0.069,0.021,0.102,0.038c0.202,0.1,1.462,1.063,2.483,1.852c0.542,0.422,0.876,1.052,0.942,1.775    c0.063,0.692-0.139,1.395-0.554,1.928l-0.241,0.246c-0.453,0.453-0.933,0.712-1.555,0.837l-3.833,0.506    C115.827,7.959,115.806,7.96,115.784,7.96z M115.377,6.96h0.374l3.767-0.496c0.395-0.08,0.698-0.243,1.011-0.558l0.201-0.2    c0.22-0.288,0.346-0.733,0.306-1.176c-0.041-0.445-0.239-0.827-0.559-1.076c-0.955-0.738-2.027-1.552-2.29-1.729l-2.725-0.681    c-0.327-0.064-0.665-0.07-1.021,0.144l-2.5,1.5c-0.371,0.281-0.61,0.584-0.667,0.869l-0.322,0.878    C111.015,4.863,113.108,6.077,115.377,6.96z"/>
	</g>
	<g>
		<path fill="#FFFFFF" d="M331.583,29.46c-0.2,0-0.3,0-0.5,0l-3.8-0.5c-0.5-0.1-0.9-0.3-1.3-0.7l-0.2-0.2c-0.7-0.9-0.6-2.3,0.3-3    l1.7-1.4c0.2-0.2,0.4-0.3,0.7-0.4l2.8-0.7c0.5-0.1,0.9-0.1,1.4,0.2l2.5,1.5c0.4,0.3,0.8,0.7,0.9,1.2l0.3,0.8    C336.783,27.46,331.583,29.46,331.583,29.46z"/>
		<path fill="#1D2445" d="M331.583,29.96h-0.5l-3.865-0.504c-0.656-0.131-1.136-0.39-1.588-0.843l-0.2-0.2    c-0.456-0.579-0.657-1.281-0.595-1.974c0.065-0.724,0.399-1.354,0.941-1.774l1.689-1.391c0.242-0.246,0.523-0.378,0.86-0.489    l2.836-0.711c0.729-0.146,1.216-0.079,1.777,0.257l2.5,1.5c0.669,0.497,1.025,0.989,1.134,1.531l0.277,0.722    c0.486,1.456-2.979,3.031-5.088,3.843C331.706,29.948,331.645,29.96,331.583,29.96z M331.801,23c-0.134,0-0.271,0.021-0.42,0.05    l-2.776,0.695c-0.218,0.073-0.341,0.142-0.468,0.269l-1.736,1.432c-0.331,0.258-0.529,0.64-0.569,1.085    c-0.04,0.441,0.086,0.888,0.347,1.222l0.159,0.154c0.313,0.314,0.616,0.478,1.045,0.563l3.767,0.494l0.339-0.003    c2.27-0.884,4.364-2.099,4.418-2.567l-0.29-0.758c-0.079-0.363-0.318-0.666-0.732-0.976l-2.457-1.472    C332.206,23.057,332.019,23,331.801,23z"/>
	</g>
	<g>
		<path fill="#FFFFFF" d="M11.683,54.76l-4.9,0.7c-0.1,0-0.3,0-0.4,0l-4.3-0.7c-0.5-0.1-1-0.4-1.3-0.9l0,0c-0.5-0.8-0.3-1.9,0.3-2.5    l0.9-0.9c0.3-0.3,0.6-0.5,1-0.5l3.1-0.4c0.3,0,0.5,0,0.8,0.1l3.6,1.2c0.5,0.2,0.9,0.6,1.1,1.1l0.3,0.7c0.1,0.2,0.2,0.4,0.3,0.5    C12.683,53.76,12.383,54.66,11.683,54.76z"/>
		<path fill="#1D2445" d="M6.784,55.96h-0.4l-4.38-0.707C1.3,55.113,0.705,54.7,0.354,54.117c-0.588-0.94-0.425-2.311,0.375-3.111    l0.9-0.899c0.302-0.301,0.728-0.646,1.354-0.646l3.036-0.396c0.377,0,0.646-0.003,1.023,0.123l3.599,1.198    c0.653,0.261,1.155,0.764,1.406,1.39l0.295,0.688c0.047,0.093,0.147,0.293,0.196,0.346c0.391,0.465,0.492,1.055,0.292,1.572    c-0.184,0.478-0.586,0.804-1.077,0.874l-4.899,0.7C6.831,55.958,6.807,55.96,6.784,55.96z M6.083,50.06l-3.036,0.396    c-0.239,0.004-0.417,0.064-0.711,0.357l-0.899,0.899c-0.416,0.416-0.622,1.254-0.23,1.882c0.21,0.35,0.564,0.593,0.974,0.675    l4.283,0.697l0.278-0.006l4.871-0.696c0.176-0.025,0.254-0.163,0.285-0.243c0.054-0.14,0.056-0.355-0.098-0.541    c-0.128-0.126-0.248-0.365-0.364-0.597l-0.312-0.727c-0.154-0.385-0.454-0.685-0.827-0.834l-3.572-1.188    C6.502,50.06,6.362,50.06,6.083,50.06z"/>
	</g>
	<g>
		<path fill="#FFFFFF" d="M185.783,93.16l-1.6,1.4c-0.3,0.3-0.7,0.4-1.1,0.5l-2.4,0.3c-0.2,0-0.3,0-0.5,0l-3.9-0.4l-4.9-0.3    c-0.6,0-1.2-0.4-1.5-0.9l-1.2-1.8c-0.5-0.8-0.4-1.8,0.2-2.5l3.6-3.6c0.4-0.4,0.9-0.6,1.4-0.6h3.2c0.2,0,0.4,0,0.6,0.1l5.9,1.9    c0.5,0.1,0.8,0.5,1.1,0.9l1.4,2.4C186.683,91.56,186.483,92.56,185.783,93.16z"/>
		<path fill="#1D2445" d="M180.684,95.859h-0.5l-3.951-0.402l-4.88-0.298c0,0-0.001,0-0.002,0c-0.712,0-1.486-0.459-1.896-1.142    l-1.187-1.78c-0.614-0.982-0.516-2.225,0.236-3.103l3.626-3.629c0.482-0.481,1.104-0.746,1.753-0.746h3.2    c0.23,0,0.518,0,0.823,0.152l5.831,1.872c0.631,0.122,1.027,0.65,1.346,1.074l1.433,2.449c0.693,1.154,0.535,2.425-0.406,3.232    l-1.597,1.396c-0.375,0.377-0.871,0.5-1.309,0.609l-2.458,0.311C180.725,95.858,180.704,95.859,180.684,95.859z M173.883,85.76    c-0.382,0-0.754,0.161-1.046,0.453l-3.6,3.601c-0.44,0.517-0.503,1.284-0.129,1.882l1.192,1.787    c0.242,0.401,0.692,0.678,1.084,0.678l4.931,0.301l3.92,0.401l0.417-0.003l2.371-0.296c0.297-0.078,0.605-0.154,0.809-0.357    l1.624-1.422c0.563-0.484,0.639-1.236,0.2-1.968l-1.403-2.404c-0.229-0.3-0.454-0.6-0.766-0.662l-5.956-1.915    c-0.16-0.073-0.267-0.075-0.447-0.075H173.883z"/>
	</g>
	<g>
		<path fill="#FFFFFF" d="M519.083,52.96l1.6,1.6c0.3,0.3,0.7,0.5,1.1,0.5l2.4,0.4c0.2,0,0.3,0,0.5,0l3.9-0.4l4.9-0.3    c0.6,0,1.2-0.4,1.5-0.9l1.2-2c0.5-0.9,0.4-2-0.2-2.7l-3.6-4c-0.4-0.4-0.9-0.6-1.4-0.6h-3.2c-0.2,0-0.4,0-0.6,0.1l-5.9,2.1    c-0.5,0.2-0.8,0.5-1.1,1l-1.4,2.6C518.283,51.16,518.383,52.26,519.083,52.96z"/>
		<path fill="#1D2445" d="M524.683,55.96h-0.5l-2.481-0.407c-0.446,0.011-0.96-0.229-1.371-0.639l-1.601-1.601    c-0.849-0.849-1.005-2.203-0.37-3.219l1.383-2.572c0.389-0.646,0.777-0.995,1.355-1.227l5.917-2.106    c0.25-0.13,0.537-0.13,0.769-0.13h3.2c0.649,0,1.272,0.266,1.753,0.747l3.619,4.019c0.748,0.873,0.854,2.217,0.265,3.277    l-1.208,2.014c-0.411,0.685-1.187,1.144-1.929,1.144l-4.87,0.299l-3.88,0.398C524.717,55.959,524.7,55.96,524.683,55.96z     M527.784,45.06c-0.18,0-0.286,0.002-0.376,0.047l-5.956,2.124c-0.353,0.142-0.577,0.35-0.84,0.787l-1.388,2.579    c-0.407,0.652-0.311,1.486,0.213,2.01l1.6,1.6c0.222,0.221,0.501,0.354,0.747,0.354l2.481,0.407l0.388-0.006l3.88-0.398    l4.921-0.302c0.422-0.001,0.872-0.277,1.102-0.659l1.199-1.999c0.382-0.688,0.323-1.564-0.15-2.117l-3.593-3.99    c-0.273-0.274-0.646-0.436-1.027-0.436H527.784z"/>
	</g>
</g>
</svg></g><!--ITEM: Illustration component 7--><g transform="translate(2295.0 633.75) rotate(0.0 125.625 304.6875)  scale(3.5378852950701947 3.54081929110982)"><svg width="71.017" height="172.1" viewBox="0.0 0.0 71.017 172.1"><g>
	<path fill="#FFFFFF" d="M23.503,127.5c0,19.8,0,36.2,0,44.1c4.5-0.4,9.2-0.9,14-1.2c0-4.5,0-15.9,0-31c28.5-3.2,32.8-51.4,33-53.5   c0.2-2.8-1.8-5.2-4.6-5.4c-2.7-0.2-5.2,1.8-5.4,4.6c0,0.4-3.8,39.5-23,43.3c0-14.4,0-29.9,0-46c14.1-1.7,18.6-18,19-26.7   c0.1-2.8-2-5.1-4.8-5.2c-2.7-0.1-5.1,2-5.2,4.8c0,0.2-0.8,13.7-9,16.2c0-34,0-63.1,0-64c0-3.9-3.1-7-7-7s-7,3.1-7,7   c0,2.3,0,61.6,0,109.4c-1.5-0.6-2.9-1.5-4.2-2.8c-7.7-7.9-9-26.8-8.8-33.4c0.1-2.8-2.1-5.1-4.9-5.1h-0.1c-2.7,0-4.9,2.2-5,4.9   c0,1.1-0.5,28.2,11.7,40.7C15.403,124.3,19.203,126.7,23.503,127.5z"/>
	<path fill="#1D2445" d="M23.503,172.1c-0.124,0-0.245-0.047-0.338-0.131c-0.104-0.095-0.162-0.229-0.162-0.369v-43.688   c-3.891-0.818-7.639-2.953-11.147-6.352C0.381,109.804-0.031,85.397,0.002,80.624L0.003,80.5c0.109-2.986,2.577-5.4,5.5-5.4   c1.584,0,2.965,0.583,3.987,1.643c1.028,1.066,1.565,2.478,1.513,3.976c-0.185,6.074,1.011,25.188,8.658,33.033   c1.015,1.016,2.115,1.802,3.342,2.386V7.5c0-4.206,3.294-7.5,7.5-7.5s7.5,3.294,7.5,7.5v63.295c7.289-2.907,7.996-15.375,8-15.504   c0.104-2.924,2.578-5.294,5.516-5.294L51.722,50c1.485,0.053,2.848,0.674,3.837,1.749c0.984,1.07,1.497,2.479,1.444,3.969   c-0.394,8.554-4.879,25.093-19,27.121v44.94c18.28-4.413,21.981-42.312,22-42.695c0.214-3.003,2.91-5.305,5.938-5.083   c3.06,0.219,5.283,2.826,5.062,5.936c-0.494,5.233-5.534,50.35-32.999,53.907V170.4c0,0.264-0.205,0.482-0.469,0.499   c-3.444,0.215-6.853,0.535-10.149,0.845c-1.293,0.121-2.573,0.241-3.838,0.354C23.532,172.099,23.518,172.1,23.503,172.1z    M5.602,76.1c-2.491,0-4.51,1.982-4.6,4.419l-0.001,0.112c-0.033,4.704,0.368,28.755,11.559,40.22   c3.479,3.368,7.193,5.443,11.034,6.158c0.236,0.044,0.408,0.25,0.408,0.491v43.553c1.085-0.098,2.182-0.2,3.289-0.305   c3.154-0.296,6.411-0.602,9.711-0.816V139.4c0-0.255,0.191-0.469,0.444-0.497c27.067-3.039,32.07-47.882,32.552-52.985   c0.188-2.603-1.63-4.74-4.132-4.919c-2.524-0.201-4.692,1.7-4.865,4.137c0.001,0.355-3.589,39.833-23.402,43.755   c-0.147,0.03-0.3-0.009-0.414-0.104c-0.115-0.096-0.183-0.237-0.183-0.387v-46c0-0.253,0.189-0.466,0.44-0.496   c13.803-1.665,18.176-17.884,18.561-26.228c0.043-1.219-0.377-2.375-1.182-3.251c-0.807-0.876-1.92-1.383-3.137-1.426l-0.167-0.003   c-2.405,0-4.432,1.938-4.516,4.32c0,0.121-0.697,14.021-9.354,16.661c-0.15,0.048-0.314,0.02-0.443-0.077   c-0.127-0.094-0.202-0.243-0.202-0.401v-64c0-3.645-2.855-6.5-6.5-6.5s-6.5,2.855-6.5,6.5v109.4c0,0.166-0.082,0.321-0.22,0.414   c-0.137,0.093-0.313,0.113-0.466,0.05c-1.637-0.655-3.065-1.607-4.368-2.911c-7.934-8.139-9.147-27.135-8.946-33.769   c0.044-1.227-0.394-2.379-1.232-3.248C7.938,76.574,6.813,76.1,5.602,76.1z"/>
</g>
</svg></g><!--ITEM: Illustration component 8--><g transform="translate(2030.625 847.5) rotate(0.0 101.25 195.0)  scale(3.4946932435930624 3.482142857142857)"><svg width="57.945" height="112.0" viewBox="0.0 0.0 57.945 112.0"><g>
	<path fill="#FFFFFF" d="M22.374,78.4c0,10,0,21.5,0,29.2c4.9,1.3,9.6,2.6,14,3.9c0-4.5,0-10.4,0-17c5.2-0.4,9.6-2.6,13.1-6.3   c8.9-9.5,8-26.2,7.9-28c-0.2-2.8-2.6-4.8-5.3-4.6c-2.7,0.2-4.8,2.6-4.6,5.3c0.3,3.9-0.2,15.1-5.2,20.5c-1.5,1.6-3.8,2.1-5.8,2.1   c0-32.8,0-74.8,0-76c0-3.9-3.1-7-7-7s-7,3.1-7,7c0,2.2,0,32.9,0,60c-1.7-0.5-3.3-1.2-4.7-2.6c-6.8-7.2-7.6-23.5-7.3-29.1   c0.1-2.8-2-5.1-4.7-5.3c-2.8-0.1-5.1,2-5.2,4.7c-0.1,1-1.2,24.7,10,36.5C13.774,75.2,17.774,77.7,22.374,78.4z"/>
	<path fill="#1D2445" d="M36.374,112c-0.048,0-0.095-0.007-0.142-0.021c-4.135-1.222-8.71-2.496-13.986-3.896   c-0.22-0.059-0.372-0.257-0.372-0.483V78.824c-4.269-0.757-8.295-3.097-11.669-6.786c-11.58-12.2-10.152-36.65-10.128-36.888   c0.104-2.876,2.524-5.153,5.506-5.153L5.792,30c3.023,0.225,5.29,2.779,5.182,5.817c-0.278,5.2,0.441,21.622,7.164,28.739   c1.218,1.218,2.586,1.848,3.836,2.264V7.5c0-4.206,3.294-7.5,7.5-7.5s7.5,3.294,7.5,7.5v75.488c1.405-0.063,3.531-0.432,4.937-1.93   c4.985-5.386,5.336-16.611,5.065-20.12c-0.218-2.945,2.101-5.618,5.062-5.838c3.065-0.229,5.619,2.033,5.836,5.063   c0.243,4.393,0.381,19.396-8.034,28.378c-3.563,3.768-7.923,5.924-12.965,6.416V111.5c0,0.157-0.074,0.306-0.201,0.4   C36.586,111.966,36.48,112,36.374,112z M22.874,107.215c4.859,1.293,9.124,2.479,13,3.617V94.5c0-0.262,0.201-0.479,0.462-0.498   c4.982-0.384,9.28-2.451,12.774-6.146c8.353-8.915,7.934-24.579,7.765-27.629c-0.178-2.469-2.282-4.339-4.764-4.129   c-2.421,0.179-4.316,2.361-4.139,4.765c0.278,3.62-0.101,15.228-5.331,20.877C40.797,83.707,37.985,84,36.474,84   c-0.276,0-0.5-0.224-0.5-0.5v-76c0-3.645-2.855-6.5-6.5-6.5s-6.5,2.855-6.5,6.5v60c0,0.157-0.074,0.306-0.2,0.4   c-0.127,0.095-0.288,0.123-0.441,0.079c-1.441-0.424-3.303-1.117-4.911-2.726c-7.008-7.419-7.751-23.796-7.446-29.48   c0.089-2.491-1.771-4.592-4.237-4.774l-0.154-0.002c-2.441,0-4.422,1.854-4.509,4.222c-0.026,0.264-1.432,24.238,9.862,36.138   c3.336,3.648,7.315,5.911,11.513,6.55c0.244,0.037,0.425,0.247,0.425,0.494V107.215z"/>
</g>
</svg></g><!--ITEM: Illustration component 9--><g transform="translate(1845.0 1430.625) rotate(-39.57565346797372 94.6875 84.375)  scale(1.8756685551285608 1.8741462222765186)"><svg width="100.964" height="90.041" viewBox="0.0 0.0 100.964 90.041"><g>
	<g>
		<g>
			<path fill="#1D2445" d="M76.899,47.981c-0.118,0-0.238-0.021-0.355-0.065c-0.516-0.196-0.775-0.773-0.579-1.29l2.06-5.418     c0.195-0.516,0.772-0.777,1.29-0.579c0.516,0.196,0.775,0.773,0.579,1.29l-2.06,5.418C77.683,47.736,77.303,47.981,76.899,47.981     z"/>
		</g>
		<g>
			<path fill="#1D2445" d="M63.402,86.28c-0.307,0-0.608-0.14-0.805-0.405l-2.634-3.559c-0.329-0.443-0.235-1.07,0.209-1.398     c0.444-0.33,1.07-0.235,1.398,0.209l2.634,3.559c0.329,0.443,0.235,1.07-0.209,1.398C63.817,86.216,63.608,86.28,63.402,86.28z"/>
		</g>
		<g>
			<path fill="#1D2445" d="M41.53,64.708c-0.504,0-0.937-0.379-0.993-0.891l-0.626-5.69c-0.061-0.549,0.336-1.043,0.885-1.104     c0.556-0.057,1.043,0.336,1.104,0.885l0.626,5.69c0.061,0.549-0.336,1.043-0.885,1.104C41.604,64.706,41.566,64.708,41.53,64.708     z"/>
		</g>
		<g>
			<path fill="#1D2445" d="M82.281,58.933c-0.246,0-0.492-0.09-0.686-0.271c-0.402-0.379-0.421-1.012-0.043-1.414l4.896-5.199     c0.381-0.402,1.012-0.421,1.414-0.043c0.402,0.379,0.421,1.012,0.043,1.414l-4.896,5.199     C82.813,58.827,82.547,58.933,82.281,58.933z"/>
		</g>
		<g>
			<path fill="#1D2445" d="M28.651,73.18c-0.367,0-0.722-0.203-0.896-0.555l-2.205-4.43c-0.246-0.494-0.045-1.095,0.45-1.341     c0.493-0.245,1.095-0.044,1.341,0.45l2.205,4.43c0.246,0.494,0.045,1.095-0.45,1.341C28.953,73.147,28.801,73.18,28.651,73.18z"/>
		</g>
		<g>
			<path fill="#1D2445" d="M54.975,29.594c-0.073,0-0.148-0.008-0.223-0.024c-0.538-0.123-0.876-0.659-0.754-1.197l1.249-5.494     c0.122-0.538,0.659-0.876,1.197-0.754c0.538,0.123,0.876,0.659,0.754,1.197l-1.249,5.494     C55.844,29.28,55.431,29.594,54.975,29.594z"/>
		</g>
		<g>
			<path fill="#1D2445" d="M55.938,90.041c-0.313,0-0.621-0.146-0.816-0.421L50.9,83.685c-0.319-0.449-0.214-1.074,0.236-1.395     c0.45-0.318,1.074-0.214,1.395,0.236l4.221,5.936c0.319,0.449,0.214,1.074-0.236,1.395C56.34,89.982,56.138,90.041,55.938,90.041     z"/>
		</g>
		<g>
			<path fill="#1D2445" d="M67.961,74.301c-4.556,0-13.311-1.771-24.667-12.464C25.106,44.712,37.247,5.533,37.773,3.873     c0.167-0.525,0.726-0.818,1.255-0.651c0.526,0.167,0.818,0.729,0.651,1.255c-0.125,0.395-12.287,39.641,4.985,55.903     c15.76,14.838,26.029,11.629,26.129,11.594c0.525-0.174,1.091,0.106,1.267,0.63c0.176,0.524-0.106,1.091-0.63,1.267     C71.284,73.919,70.074,74.3,67.961,74.301z"/>
		</g>
		<g>
			<path fill="#1D2445" d="M41.828,74.86c-6.945,0-14.815-4.81-19.748-9.453C12.326,56.222,8.5,39.06,13.552,27.15     c5.783-13.526,23.931-23.439,24.7-23.854c0.484-0.265,1.093-0.08,1.354,0.405c0.263,0.485,0.081,1.092-0.405,1.354     C39.02,5.154,20.897,15.056,15.393,27.934c-4.751,11.2-1.137,27.358,8.059,36.016c6.647,6.258,18.961,12.994,25.642,5.896     c0.381-0.402,1.012-0.42,1.414-0.043c0.402,0.379,0.421,1.012,0.043,1.414C48.105,73.813,45.066,74.86,41.828,74.86z"/>
		</g>
		<g>
			<path fill="#1D2445" d="M62.578,75.695c-0.089,0-0.18-0.012-0.27-0.037c-0.532-0.147-0.843-0.699-0.694-1.231     C71.98,37.233,48.987,14.227,46.331,11.727c-4.507-4.242-8.127-6.698-8.163-6.723c-0.458-0.309-0.579-0.93-0.271-1.388     c0.31-0.46,0.932-0.578,1.388-0.271c0.152,0.103,3.783,2.562,8.417,6.924c12.376,11.653,23.95,35.589,15.838,64.693     C63.417,75.406,63.016,75.695,62.578,75.695z"/>
		</g>
		<g>
			<path fill="#1D2445" d="M54.751,50.668c-0.338,0-0.668-0.172-0.856-0.481C43.555,33.116,37.803,4.656,37.746,4.37     c-0.108-0.541,0.243-1.068,0.785-1.176c0.54-0.113,1.068,0.243,1.176,0.785c0.057,0.282,5.742,28.402,15.898,45.171     c0.286,0.472,0.135,1.087-0.338,1.373C55.106,50.621,54.928,50.668,54.751,50.668z"/>
		</g>
		<g>
			<path fill="#1D2445" d="M43.094,51.053c-0.168,0-0.334-0.002-0.496-0.007c-4.987-0.125-9.885-2.113-13.435-5.456     c-0.402-0.379-0.421-1.012-0.043-1.414c0.38-0.402,1.012-0.421,1.414-0.043c3.149,2.966,7.678,4.803,12.113,4.914     c3.741,0.1,9.269-0.953,14.465-6.473c4.041-4.292,6.402-8.33,7.219-12.345c1.176-5.784-1.054-11.377-6.626-16.622     c-7.472-7.035-18.978-8.426-19.093-8.439c-0.549-0.063-0.942-0.559-0.879-1.107s0.551-0.953,1.107-0.879     c0.498,0.057,12.285,1.484,20.235,8.969c6.11,5.753,8.537,11.97,7.215,18.478c-0.893,4.391-3.419,8.746-7.722,13.317     C53.09,49.765,47.216,51.053,43.094,51.053z"/>
		</g>
		<g>
			<path fill="#1D2445" d="M67.722,45.226c-0.428,0-0.823-0.276-0.955-0.707c-0.162-0.527,0.135-1.087,0.662-1.249     c0.053-0.017,5.319-1.674,9.478-6.092c2.438-2.589,3.851-6.992,3.688-11.491c-0.141-3.867-1.47-9.57-7.005-14.781     C59.841-2.039,39.268,5.044,39.061,5.117c-0.522,0.188-1.092-0.088-1.276-0.608s0.088-1.092,0.608-1.276     c0.217-0.076,21.94-7.556,36.567,6.216c6.028,5.677,7.478,11.925,7.632,16.166c0.183,5.014-1.438,9.971-4.229,12.935     c-4.536,4.818-10.114,6.562-10.35,6.633C67.916,45.212,67.818,45.226,67.722,45.226z"/>
		</g>
		<g>
			<path fill="#1D2445" d="M54.644,63.918c-3.246,0.001-7.25-2.146-11.731-6.364c-6.831-6.431-12.133-15.494-13.508-23.091     c-2.889-15.778,8.062-30.286,8.528-30.896c0.337-0.439,0.966-0.52,1.401-0.186c0.438,0.336,0.522,0.964,0.187,1.402     c-0.109,0.143-10.875,14.427-8.148,29.322c1.304,7.204,6.372,15.835,12.911,21.991c3.515,3.311,9.961,8.281,13.621,4.39     c0.716-0.76,1.026-1.612,0.923-2.536c-0.087-0.775-0.483-1.563-1.063-2.107c-0.611-0.576-1.442-0.602-2.034-0.523     c-0.785,0.106-1.419,0.44-1.6,0.633c-0.38,0.402-1.012,0.421-1.414,0.043c-0.402-0.379-0.421-1.012-0.043-1.414     c0.568-0.604,1.664-1.092,2.79-1.243c1.443-0.199,2.748,0.179,3.672,1.049c0.927,0.872,1.539,2.091,1.679,3.342     c0.118,1.054-0.038,2.626-1.454,4.129C58.063,63.236,56.474,63.918,54.644,63.918z"/>
		</g>
		<g>
			<path fill="#1D2445" d="M80.569,52.417c-0.007,0-0.015,0-0.022,0c-0.552-0.013-0.989-0.471-0.978-1.022     c0.126-5.561-3.944-25.063-17.52-35.373C48.509,5.739,38.65,5.334,38.553,5.331c-0.551-0.017-0.986-0.476-0.971-1.027     c0.015-0.543,0.458-0.973,0.998-0.973c0.008,0,0.017,0,0.025,0c0.424,0.011,10.546,0.384,24.653,11.099     C77.62,25.337,81.706,45.374,81.569,51.44C81.557,51.985,81.111,52.417,80.569,52.417z"/>
		</g>
		<g>
			<path fill="#1D2445" d="M70.338,69.659c-2.302,0-3.74-0.707-3.871-0.773c-0.491-0.252-0.686-0.854-0.435-1.347     c0.251-0.49,0.853-0.688,1.341-0.437c0.265,0.128,6.122,2.87,13.616-5.089c5.217-5.541,7.291-13.751,5.839-23.116     c-1.318-8.508-5.367-16.657-10.83-21.8C60.358,2.372,39.076,5.137,38.864,5.165c-0.552,0.077-1.052-0.307-1.128-0.853     c-0.076-0.547,0.306-1.052,0.853-1.128c0.223-0.032,22.449-2.92,38.78,12.456c5.776,5.438,10.051,14.018,11.436,22.95     c1.548,9.988-0.71,18.794-6.358,24.794C77.626,68.504,73.278,69.659,70.338,69.659z"/>
		</g>
		<g>
			<path fill="#1D2445" d="M48.58,84.235c-5.605,0-11.254-1.117-16.475-3.396c-10.368-4.524-17.103-12.946-18.477-23.107     C10.303,33.541,36.862,4.709,37.995,3.493c0.376-0.402,1.011-0.426,1.413-0.05c0.404,0.376,0.427,1.009,0.05,1.413     C39.188,5.148,12.414,34.211,15.61,57.462c1.278,9.453,7.582,17.306,17.295,21.544c12.179,5.313,26.794,3.998,37.233-3.354     c0.453-0.317,1.076-0.21,1.394,0.241c0.318,0.452,0.21,1.076-0.241,1.394C64.776,81.875,56.724,84.235,48.58,84.235z"/>
		</g>
	</g>
	<g>
		<g>
			<path fill="#1D2445" d="M92.273,21.733c-3.244,0-5.344-1.807-5.458-1.907c-0.414-0.364-0.454-0.996-0.089-1.411     c0.366-0.416,0.998-0.453,1.411-0.089c0.11,0.095,2.85,2.405,6.796,0.894c0.514-0.197,1.094,0.061,1.291,0.578     c0.196,0.516-0.062,1.094-0.578,1.291C94.427,21.554,93.293,21.733,92.273,21.733z"/>
		</g>
		<g>
			<path fill="#1D2445" d="M0.999,44.204c-0.538,0-0.982-0.428-0.999-0.97c-0.016-0.553,0.418-1.014,0.97-1.03     c0.663-0.02,2.471-0.968,3.28-1.826c1.389-1.568,1.963-3.012,1.968-3.025c0.201-0.514,0.774-0.771,1.294-0.569     c0.514,0.199,0.77,0.775,0.572,1.289c-0.027,0.072-0.693,1.776-2.358,3.654C4.668,42.851,2.4,44.162,1.03,44.204     C1.02,44.204,1.01,44.204,0.999,44.204z"/>
		</g>
		<g>
			<path fill="#1D2445" d="M9.868,70.209c-0.027,0-0.054-0.001-0.081-0.003c-0.551-0.045-0.961-0.527-0.917-1.077l0.552-6.837     c0.045-0.552,0.533-0.963,1.077-0.917c0.551,0.045,0.961,0.527,0.917,1.077l-0.552,6.837     C10.821,69.813,10.384,70.209,9.868,70.209z"/>
		</g>
		<g>
			<path fill="#1D2445" d="M79.983,83.254c-0.037,0-0.074-0.002-0.112-0.006c-0.549-0.062-0.944-0.557-0.883-1.105l0.797-7.098     c0.062-0.548,0.558-0.941,1.105-0.883c0.549,0.062,0.944,0.557,0.883,1.105l-0.797,7.098     C80.919,82.876,80.486,83.254,79.983,83.254z"/>
		</g>
		<g>
			<path fill="#1D2445" d="M99.963,58.906c-0.175,0-0.352-0.046-0.513-0.142l-5.711-3.415c-0.474-0.283-0.628-0.897-0.345-1.372     c0.284-0.474,0.897-0.627,1.372-0.345l5.711,3.415c0.474,0.283,0.628,0.897,0.345,1.372     C100.635,58.732,100.303,58.906,99.963,58.906z"/>
		</g>
		<g>
			<path fill="#1D2445" d="M71.389,5.908c-0.317,0-0.629-0.15-0.823-0.431c-0.314-0.454-0.201-1.077,0.253-1.392l5.642-3.908     c0.454-0.315,1.076-0.201,1.392,0.253c0.314,0.454,0.201,1.077-0.253,1.392l-5.642,3.908C71.783,5.851,71.585,5.908,71.389,5.908     z"/>
		</g>
		<g>
			<path fill="#1D2445" d="M32.687,89.732c-0.383,0-0.748-0.22-0.914-0.592l-1.896-4.237c-0.226-0.504,0.001-1.096,0.505-1.321     c0.508-0.224,1.097,0.001,1.321,0.505l1.896,4.237c0.226,0.504-0.001,1.096-0.505,1.321     C32.961,89.703,32.822,89.732,32.687,89.732z"/>
		</g>
		<g>
			<path fill="#1D2445" d="M38.323,42.07c-0.118,0-0.238-0.021-0.355-0.065c-0.517-0.196-0.775-0.774-0.579-1.29l2.528-6.645     c0.195-0.516,0.772-0.776,1.29-0.579c0.517,0.196,0.775,0.774,0.579,1.29l-2.528,6.645C39.106,41.825,38.727,42.07,38.323,42.07z     "/>
		</g>
		<g>
			<path fill="#1D2445" d="M62.706,29.714c-0.532,0-0.975-0.419-0.998-0.956l-0.323-7.366c-0.024-0.552,0.403-1.019,0.955-1.043     c0.547-0.031,1.02,0.403,1.043,0.955l0.323,7.366c0.024,0.552-0.403,1.019-0.955,1.043     C62.736,29.714,62.721,29.714,62.706,29.714z"/>
		</g>
		<g>
			<path fill="#1D2445" d="M77.204,58.075c-0.313,0-0.621-0.146-0.816-0.421l-4.221-5.936c-0.319-0.449-0.214-1.074,0.236-1.395     c0.451-0.319,1.074-0.213,1.395,0.236l4.221,5.936c0.319,0.449,0.214,1.074-0.236,1.395     C77.606,58.016,77.404,58.075,77.204,58.075z"/>
		</g>
		<g>
			<path fill="#1D2445" d="M21.128,58.25c-0.041,0-0.082-0.002-0.124-0.008c-0.548-0.068-0.938-0.567-0.869-1.115l0.895-7.202     c0.067-0.549,0.567-0.946,1.115-0.869c0.548,0.068,0.938,0.567,0.869,1.115l-0.895,7.202C22.057,57.88,21.626,58.25,21.128,58.25     z"/>
		</g>
		<g>
			<path fill="#1D2445" d="M68.939,85.608c-0.341,0-0.673-0.174-0.859-0.488c-0.283-0.474-0.128-1.088,0.347-1.371     c0.1-0.06,10.121-6.103,17.731-16.336C96.26,53.828,97.552,39.66,89.999,25.3C72.458-7.98,39.434,4.967,39.103,5.102     c-0.508,0.206-1.094-0.038-1.303-0.551c-0.208-0.512,0.039-1.095,0.551-1.303c0.348-0.14,35.041-13.745,53.418,21.12     C110.695,60.353,69.865,85.22,69.45,85.467C69.29,85.563,69.113,85.608,68.939,85.608z"/>
		</g>
		<g>
			<path fill="#1D2445" d="M60.1,77.285c-0.331,0-0.654-0.164-0.845-0.463C58.089,74.99,30.783,31.623,37.757,3.931     c0.135-0.537,0.677-0.859,1.214-0.726c0.535,0.135,0.86,0.679,0.726,1.214c-6.763,26.856,20.965,70.888,21.246,71.329     c0.297,0.467,0.159,1.084-0.307,1.381C60.469,77.235,60.283,77.285,60.1,77.285z"/>
		</g>
		<g>
			<path fill="#1D2445" d="M39.939,78.903c-0.3,0-0.597-0.134-0.794-0.391C38.823,78.093,7.222,36.179,37.998,3.49     c0.38-0.402,1.012-0.421,1.414-0.043c0.402,0.379,0.421,1.012,0.043,1.414c-29.603,31.441,0.964,72.026,1.276,72.433     c0.336,0.438,0.254,1.065-0.184,1.402C40.366,78.835,40.151,78.903,39.939,78.903z"/>
		</g>
		<g>
			<path fill="#1D2445" d="M53.122,80.527c-0.147,0-0.298-0.033-0.44-0.103c-0.361-0.178-8.972-4.463-19.361-14.245     c-4.425-4.166-12.294-12.795-15.281-23.785c-3.206-11.799-0.001-22.912,9.526-33.032c5.859-6.223,10.954-6.18,11.184-6.187     c0.552,0.013,0.989,0.47,0.978,1.022c-0.013,0.544-0.458,0.978-1,0.978c-0.007,0-0.015,0-0.022,0l0,0     c-0.063,0-4.492,0.046-9.682,5.558c-9.02,9.579-12.065,20.055-9.053,31.137c2.858,10.516,10.45,18.832,14.722,22.853     c10.153,9.561,18.787,13.865,18.873,13.907c0.495,0.244,0.699,0.844,0.456,1.339C53.847,80.322,53.491,80.527,53.122,80.527z"/>
		</g>
		<g>
			<path fill="#1D2445" d="M59.919,54.555c-0.552,0-0.999-0.447-1-0.999C58.892,24.866,38.25,5.1,38.041,4.904     c-0.402-0.379-0.421-1.012-0.043-1.414c0.38-0.402,1.012-0.421,1.414-0.043C39.627,3.65,60.891,24.01,60.919,53.554     C60.92,54.107,60.473,54.554,59.919,54.555L59.919,54.555z"/>
		</g>
		<g>
			<path fill="#1D2445" d="M38.743,89.549c-0.117,0-0.236-0.021-0.353-0.064c-0.362-0.137-8.971-3.437-17.341-11.315     C14.559,72.057,0.227,55.428,7.329,33.083c2.078-6.465,7.707-14.581,10.274-17.309C29.576,3.06,38.385,3.186,38.755,3.175     c0.553,0.017,0.987,0.477,0.972,1.028c-0.016,0.553-0.48,0.948-1.028,0.972c-0.08,0.027-8.35-0.018-19.638,11.971     c-2.39,2.537-7.869,10.457-9.826,16.546c-6.758,21.26,6.971,37.168,13.187,43.021c8.063,7.592,16.591,10.869,16.676,10.901     c0.517,0.195,0.776,0.772,0.582,1.289C39.527,89.303,39.146,89.549,38.743,89.549z"/>
		</g>
		<g>
			<path fill="#1D2445" d="M84.039,43.521c-0.487,0-0.914-0.356-0.988-0.853c-0.015-0.101-1.563-10.102-7.809-19.674     C66.936,10.262,54.681,4.272,38.783,5.173c-0.518,0.035-1.023-0.39-1.055-0.941c-0.032-0.551,0.39-1.023,0.941-1.055     c39.729-2.289,46.298,38.782,46.359,39.197c0.081,0.546-0.296,1.054-0.842,1.136C84.138,43.517,84.088,43.521,84.039,43.521z"/>
		</g>
		<g>
			<path fill="#1D2445" d="M66.434,69.516c-0.245,0-0.491-0.09-0.685-0.271c-0.402-0.377-0.423-1.01-0.046-1.413     c0.085-0.09,8.424-9.228,5.539-24.874c-1.913-10.456-6.708-19.118-14.658-26.481C47.868,8.364,38.502,5.155,38.408,5.123     c-0.523-0.176-0.805-0.743-0.63-1.267c0.177-0.522,0.744-0.801,1.266-0.63c0.398,0.134,9.854,3.364,18.901,11.783     c8.276,7.666,13.27,16.69,15.264,27.586c3.076,16.685-5.674,26.208-6.048,26.605C66.964,69.41,66.699,69.516,66.434,69.516z"/>
		</g>
	</g>
</g>
</svg></g><!--ITEM: Illustration component 10--><g transform="translate(560.625 1445.625) rotate(0.0 188.4375 178.125)  scale(2.2623449749678843 2.271727277944637)"><svg width="166.586" height="156.819" viewBox="0.0 0.0 166.586 156.819"><g>
	<g>
		<g>
			<path fill="#1D2445" d="M49.722,51.954c-0.589,0-1.147-0.349-1.387-0.927c-0.316-0.766,0.047-1.643,0.813-1.959l9.156-3.785     c0.767-0.319,1.643,0.047,1.959,0.813c0.316,0.766-0.047,1.643-0.813,1.959l-9.156,3.785     C50.107,51.918,49.912,51.954,49.722,51.954z"/>
		</g>
		<g>
			<path fill="#1D2445" d="M121.017,27.538c-0.088,0-0.178-0.008-0.268-0.023c-0.815-0.147-1.357-0.928-1.21-1.743l1.343-7.447     c0.147-0.814,0.931-1.347,1.742-1.21c0.815,0.147,1.357,0.928,1.21,1.743l-1.343,7.447     C122.361,27.029,121.729,27.538,121.017,27.538z"/>
		</g>
		<g>
			<path fill="#1D2445" d="M114.789,80.032c-0.344,0-0.69-0.118-0.973-0.358c-0.63-0.537-0.706-1.484-0.168-2.114l6.348-7.447     c0.538-0.632,1.484-0.705,2.115-0.169c0.63,0.537,0.706,1.484,0.168,2.114l-6.348,7.447     C115.634,79.853,115.213,80.032,114.789,80.032z"/>
		</g>
		<g>
			<path fill="#1D2445" d="M66.202,28.637H53.994c-0.829,0-1.5-0.672-1.5-1.5s0.671-1.5,1.5-1.5h12.208c0.829,0,1.5,0.672,1.5,1.5     S67.031,28.637,66.202,28.637z"/>
		</g>
		<g>
			<path fill="#1D2445" d="M143.844,86.624c-0.173,0-0.348-0.029-0.52-0.093c-0.777-0.287-1.174-1.149-0.888-1.927l2.93-7.935     c0.287-0.777,1.152-1.176,1.927-0.888c0.777,0.287,1.174,1.149,0.888,1.927l-2.93,7.935     C145.028,86.249,144.454,86.624,143.844,86.624z"/>
		</g>
		<g>
			<path fill="#1D2445" d="M53.385,101.884c-0.514,0-1.015-0.265-1.294-0.739c-0.42-0.714-0.182-1.634,0.532-2.054l8.301-4.883     c0.714-0.421,1.633-0.182,2.054,0.532c0.42,0.714,0.182,1.634-0.532,2.054l-8.301,4.883     C53.905,101.817,53.643,101.884,53.385,101.884z"/>
		</g>
		<g>
			<path fill="#1D2445" d="M133.347,37.183c-0.098,0-0.196-0.009-0.296-0.029c-0.812-0.162-1.339-0.952-1.176-1.765l2.442-12.208     c0.162-0.812,0.947-1.348,1.765-1.177c0.812,0.162,1.339,0.952,1.176,1.765l-2.442,12.208     C134.673,36.689,134.047,37.183,133.347,37.183z"/>
		</g>
		<g>
			<path fill="#1D2445" d="M50.332,145.832c-0.558,0-1.094-0.313-1.353-0.85c-0.359-0.746-0.045-1.643,0.701-2.002     c0.638-0.308,63.853-31.211,63.853-71.896c0-37.128-16.137-46.201-16.3-46.288c-0.73-0.392-1.005-1.301-0.614-2.03     c0.391-0.73,1.299-1.008,2.031-0.614c0.73,0.392,17.883,10.026,17.883,48.933c0,42.57-62.875,73.311-65.552,74.599     C50.772,145.784,50.551,145.832,50.332,145.832z"/>
		</g>
		<g>
			<path fill="#1D2445" d="M87.077,151.85c-18.577,0-36.2-5.756-37.218-6.094c-0.786-0.262-1.212-1.11-0.951-1.896     c0.261-0.784,1.111-1.207,1.896-0.951c0.337,0.111,33.964,11.087,56.511,2.824c19.583-7.24,35.518-30.761,35.518-52.429     c0-15.689-6.103-39.03-22.916-39.03c-0.829,0-1.5-0.672-1.5-1.5s0.671-1.5,1.5-1.5c19.014,0,25.916,25.136,25.916,42.03     c0,22.82-16.814,47.603-37.481,55.244C101.738,150.971,94.333,151.85,87.077,151.85z"/>
		</g>
		<g>
			<path fill="#1D2445" d="M50.329,145.832c-0.722,0-1.358-0.522-1.479-1.258c-0.05-0.309-1.24-7.691-1.24-18.554     c0-6.974,1.207-25.488,12.38-46.737c10.905-20.737,27.546-37.086,49.462-48.592c0.735-0.387,1.641-0.102,2.025,0.631     c0.385,0.733,0.103,1.641-0.631,2.025c-58.546,30.737-60.237,86.424-60.237,92.673c0,10.6,1.189,17.996,1.201,18.069     c0.133,0.817-0.421,1.589-1.238,1.723C50.492,145.825,50.41,145.832,50.329,145.832z"/>
		</g>
		<g>
			<path fill="#1D2445" d="M50.33,145.832c-0.301,0-0.604-0.09-0.869-0.278c-0.675-0.48-0.832-1.417-0.352-2.092     c0.285-0.4,28.643-40.455,37.621-72.778c0.222-0.799,1.051-1.26,1.847-1.044c0.798,0.222,1.266,1.049,1.044,1.847     c-9.121,32.835-37.78,73.311-38.068,73.716C51.261,145.613,50.799,145.832,50.33,145.832z"/>
		</g>
		<g>
			<path fill="#1D2445" d="M50.332,145.832c-0.457,0-0.909-0.208-1.203-0.603c-0.511-0.685-12.505-16.972-12.505-35.567     c0-16.612,6.932-36.415,39.955-36.415c23.573,0,36.292,17.756,36.292,34.462c0,0.828-0.671,1.5-1.5,1.5s-1.5-0.672-1.5-1.5     c0-12.164-9.039-31.462-33.292-31.462c-24.521,0-36.955,11.242-36.955,33.415c0,17.609,11.791,33.613,11.91,33.772     c0.496,0.664,0.359,1.604-0.305,2.1C50.959,145.735,50.644,145.832,50.332,145.832z"/>
		</g>
		<g>
			<path fill="#1D2445" d="M50.33,145.832c-0.231,0-0.465-0.053-0.685-0.166c-0.35-0.18-34.996-18.394-34.996-52.606     c0-24.548,18.933-38.124,32.02-38.124c11.256,0,19.914,4.873,20.277,5.08c0.719,0.411,0.968,1.326,0.558,2.045     c-0.41,0.719-1.326,0.972-2.045,0.561c-0.083-0.047-8.36-4.686-18.79-4.686c-11.861,0-29.02,12.508-29.02,35.124     c0,32.361,33.035,49.767,33.369,49.938c0.736,0.38,1.026,1.284,0.647,2.021C51.399,145.535,50.874,145.832,50.33,145.832z"/>
		</g>
		<g>
			<path fill="#1D2445" d="M50.329,145.832c-0.76,0-1.411-0.575-1.49-1.348c-0.084-0.824,0.516-1.561,1.34-1.645     c0.306-0.031,30.789-3.376,46.189-24.3c7.462-10.097,12.282-26.566,12.282-41.962c0-8.33-1.391-22.305-10.708-22.305     c-4.273,0-5.825,3.483-5.825,5.824c0,2.796,3.42,4.604,4.604,4.604c0.829,0,1.5,0.672,1.5,1.5s-0.671,1.5-1.5,1.5     c-2.611,0-7.604-2.962-7.604-7.604c0-4.277,3.093-8.824,8.825-8.824c8.84,0,13.708,8.986,13.708,25.305     c0,15.996-5.051,33.166-12.868,43.742c-16.198,22.01-46.996,25.372-48.299,25.504C50.432,145.829,50.38,145.832,50.329,145.832z"/>
		</g>
		<g>
			<path fill="#1D2445" d="M50.697,145.831c-0.411,0-0.821-0.168-1.117-0.498c-0.481-0.539-11.834-13.525-15.023-43.57     c-3.244-30.57,16.851-59.057,24.538-65.975c0.616-0.554,1.565-0.506,2.118,0.112c0.554,0.615,0.504,1.563-0.111,2.118     c-7.087,6.378-26.645,34.373-23.562,63.428c3.076,28.982,14.166,41.762,14.277,41.888c0.549,0.618,0.495,1.565-0.122,2.116     C51.409,145.706,51.052,145.831,50.697,145.831z"/>
		</g>
		<g>
			<path fill="#1D2445" d="M50.33,145.832c-0.33,0-0.662-0.108-0.939-0.331c-0.299-0.24-29.859-24.453-29.859-62.696     c0-28.105,23.758-62.051,53.262-62.051c21.27,0,25.21,12.747,25.368,13.289c0.231,0.796-0.227,1.628-1.022,1.858     c-0.796,0.233-1.624-0.224-1.857-1.017c-0.148-0.486-3.624-11.131-22.488-11.131c-27.842,0-50.262,32.305-50.262,59.051     c0,36.822,28.452,60.127,28.739,60.358c0.646,0.52,0.748,1.463,0.229,2.109C51.204,145.641,50.769,145.832,50.33,145.832z"/>
		</g>
		<g>
			<path fill="#1D2445" d="M50.331,145.832c-0.825,0-1.496-0.666-1.5-1.492c-0.004-0.828,0.664-1.503,1.492-1.508     c0.681-0.004,68.322-0.738,93.574-32.037c10.316-12.726,12.715-29.845,6.583-46.971c-7.681-21.451-26.504-38.151-47.956-42.543     c-0.812-0.166-1.335-0.959-1.169-1.771s0.954-1.332,1.771-1.169c22.456,4.599,42.152,22.054,50.178,44.472     c6.494,18.135,3.915,36.312-7.075,49.868c-26.147,32.408-93.055,33.136-95.891,33.15     C50.337,145.832,50.334,145.832,50.331,145.832z"/>
		</g>
	</g>
	<g>
		<g>
			<path fill="#1D2445" d="M11.754,67.702c-0.805,0-1.471-0.639-1.498-1.45c-0.011-0.257-0.351-6.485-6.967-9.687     c-0.746-0.361-1.058-1.258-0.697-2.004c0.361-0.745,1.26-1.056,2.003-0.697c8.289,4.011,8.647,11.952,8.659,12.288     c0.028,0.828-0.621,1.521-1.449,1.549C11.788,67.702,11.771,67.702,11.754,67.702z"/>
		</g>
		<g>
			<path fill="#1D2445" d="M143.112,147.053c-0.384,0-0.768-0.146-1.061-0.439c-0.837-0.837-4.15-2.002-6.264-2.002     c-3.629,0.11-6.125,1.101-6.15,1.11c-0.769,0.309-1.641-0.06-1.953-0.826c-0.311-0.766,0.055-1.639,0.82-1.952     c0.12-0.049,2.985-1.202,7.237-1.331c0,0,0.001,0,0.002,0c2.591,0,6.807,1.258,8.429,2.88c0.586,0.586,0.586,1.535,0,2.121     C143.879,146.906,143.495,147.053,143.112,147.053z"/>
		</g>
		<g>
			<path fill="#1D2445" d="M155.931,112.871c-0.44,0-0.876-0.192-1.172-0.563c-0.518-0.647-0.413-1.591,0.234-2.108l9.156-7.325     c0.646-0.519,1.591-0.412,2.108,0.233c0.518,0.647,0.413,1.591-0.234,2.108l-9.156,7.325     C156.591,112.764,156.26,112.871,155.931,112.871z"/>
		</g>
		<g>
			<path fill="#1D2445" d="M89.398,10.325c-0.456,0-0.906-0.207-1.201-0.6c-0.497-0.663-0.363-1.604,0.3-2.101L98.263,0.3     c0.662-0.496,1.603-0.362,2.1,0.3c0.497,0.663,0.363,1.604-0.3,2.101l-9.766,7.325C90.027,10.227,89.711,10.325,89.398,10.325z"/>
		</g>
		<g>
			<path fill="#1D2445" d="M47.889,17.771c-0.689,0-1.31-0.478-1.463-1.178L43.984,5.484c-0.178-0.81,0.334-1.609,1.143-1.787     c0.809-0.188,1.609,0.334,1.787,1.143l2.441,11.109c0.178,0.81-0.334,1.609-1.143,1.787     C48.103,17.761,47.995,17.771,47.889,17.771z"/>
		</g>
		<g>
			<path fill="#1D2445" d="M12.977,104.325c-0.104,0-0.208-0.011-0.313-0.033l-11.476-2.441c-0.811-0.172-1.328-0.969-1.155-1.779     c0.172-0.811,0.969-1.326,1.779-1.154l11.476,2.441c0.811,0.172,1.328,0.969,1.155,1.779     C14.293,103.843,13.67,104.325,12.977,104.325z"/>
		</g>
		<g>
			<path fill="#1D2445" d="M159.592,61.598c-0.192,0-0.388-0.037-0.577-0.115c-0.765-0.319-1.126-1.197-0.808-1.962l3.052-7.324     c0.319-0.765,1.195-1.125,1.962-0.808c0.765,0.319,1.126,1.197,0.808,1.962l-3.052,7.324     C160.737,61.251,160.179,61.598,159.592,61.598z"/>
		</g>
		<g>
			<path fill="#1D2445" d="M85.491,107.744c-0.589,0-1.148-0.349-1.387-0.928c-0.316-0.766,0.048-1.643,0.813-1.959l11.231-4.64     c0.766-0.316,1.643,0.048,1.959,0.814c0.316,0.766-0.048,1.643-0.813,1.959l-11.231,4.64     C85.875,107.708,85.682,107.744,85.491,107.744z"/>
		</g>
		<g>
			<path fill="#1D2445" d="M43.983,96.269c-0.377,0-0.754-0.142-1.046-0.425c-0.594-0.578-0.607-1.527-0.029-2.121l8.79-9.034     c0.578-0.595,1.528-0.605,2.121-0.029c0.594,0.578,0.607,1.527,0.029,2.121l-8.79,9.034     C44.765,96.117,44.374,96.269,43.983,96.269z"/>
		</g>
		<g>
			<path fill="#1D2445" d="M68.645,48.169c-0.097,0-0.196-0.009-0.295-0.029c-0.813-0.162-1.339-0.952-1.177-1.765l2.441-12.208     c0.162-0.812,0.951-1.348,1.765-1.177c0.813,0.162,1.339,0.952,1.177,1.765l-2.441,12.208     C69.972,47.676,69.346,48.169,68.645,48.169z"/>
		</g>
		<g>
			<path fill="#1D2445" d="M126.998,112.871c-0.462,0-0.917-0.213-1.211-0.614c-0.489-0.669-0.344-1.607,0.325-2.097l10.011-7.325     c0.668-0.488,1.606-0.344,2.096,0.325c0.489,0.669,0.344,1.607-0.325,2.097l-10.011,7.325     C127.616,112.777,127.306,112.871,126.998,112.871z"/>
		</g>
		<g>
			<path fill="#1D2445" d="M50.33,145.832c-0.209,0-0.421-0.044-0.624-0.137c-0.595-0.272-14.709-6.846-26.35-21.361     c-10.775-13.437-21.23-36.42-9.847-69.605c11.795-34.29,38.963-44.334,59.677-46.723c22.274-2.571,41.453,2.809,42.259,3.039     c0.796,0.228,1.257,1.058,1.03,1.854c-0.228,0.796-1.059,1.26-1.854,1.03c-0.193-0.056-19.485-5.451-41.178-2.934     C44.609,14.348,25.398,29.39,16.347,55.703c-8.768,25.562-5.646,47.991,9.278,66.664c11.188,13.999,25.191,20.537,25.332,20.602     c0.752,0.346,1.083,1.236,0.737,1.988C51.442,145.508,50.898,145.832,50.33,145.832z"/>
		</g>
		<g>
			<path fill="#1D2445" d="M50.333,145.832c-0.526,0-1.037-0.277-1.312-0.77c-0.403-0.724-0.144-1.638,0.58-2.041     c41.44-23.101,63.758-109.283,63.979-110.15c0.204-0.804,1.02-1.286,1.823-1.085c0.803,0.204,1.288,1.021,1.084,1.823     c-0.914,3.595-22.867,88.309-65.425,112.033C50.83,145.771,50.58,145.832,50.333,145.832z"/>
		</g>
		<g>
			<path fill="#1D2445" d="M50.331,145.832c-0.829,0-1.5-0.672-1.5-1.5s0.671-1.5,1.5-1.5c30.997,0,55.355-14.514,72.4-43.138     c12.791-21.479,16.422-43.28,16.457-43.498c0.132-0.817,0.91-1.38,1.72-1.241c0.818,0.132,1.374,0.901,1.242,1.719     c-0.036,0.223-3.737,22.511-16.794,44.477C113.24,121.534,90.388,145.832,50.331,145.832z"/>
		</g>
		<g>
			<path fill="#1D2445" d="M69.864,151.936c-14.54,0-20.405-6.332-20.647-6.602c-0.554-0.615-0.504-1.563,0.111-2.118     c0.616-0.554,1.565-0.505,2.118,0.112c0.046,0.049,5.329,5.607,18.418,5.607c56.378,0,60.76-53.981,60.76-70.526     c0-23.875-4.769-39.688-4.816-39.846c-0.243-0.792,0.201-1.631,0.993-1.874c0.793-0.246,1.631,0.202,1.874,0.992     c0.202,0.657,4.949,16.366,4.949,40.728C133.624,95.658,129.026,151.936,69.864,151.936z"/>
		</g>
		<g>
			<path fill="#1D2445" d="M50.331,145.832L50.331,145.832c-0.829-0.001-1.5-0.672-1.5-1.5c0-0.503,0.424-50.732,37.095-85.325     c0.603-0.568,1.552-0.539,2.121,0.062c0.568,0.603,0.541,1.552-0.062,2.12c-35.707,33.684-36.153,82.653-36.153,83.145     C51.831,145.16,51.16,145.832,50.331,145.832z"/>
		</g>
		<g>
			<path fill="#1D2445" d="M89.519,156.819c-29.752,0-39.892-11.021-40.309-11.491c-0.55-0.619-0.495-1.566,0.125-2.117     c0.619-0.551,1.566-0.496,2.118,0.125c0.09,0.099,9.829,10.483,38.066,10.483c5.974,0,22.296-2.466,32.194-7.179     c34.486-16.554,38.21-52.376,38.21-67.01c0-19.014-5.928-33.462-5.988-33.605c-0.318-0.765,0.043-1.644,0.808-1.962     c0.763-0.316,1.642,0.043,1.961,0.808c0.254,0.609,6.219,15.152,6.219,34.76c0,15.201-3.89,52.424-39.916,69.717     C112.557,154.323,95.906,156.819,89.519,156.819z"/>
		</g>
		<g>
			<path fill="#1D2445" d="M50.331,145.832c-0.37,0-0.741-0.137-1.031-0.411c-25.747-24.395-25.861-51.236-21.423-69.457     c4.783-19.64,15.454-33.313,15.906-33.887c0.514-0.651,1.456-0.76,2.106-0.248c0.65,0.513,0.762,1.456,0.249,2.106     c-0.107,0.136-10.761,13.808-15.371,32.837c-6.139,25.342,0.791,47.705,20.596,66.471c0.601,0.569,0.627,1.52,0.057,2.12     C51.125,145.675,50.728,145.832,50.331,145.832z"/>
		</g>
		<g>
			<path fill="#1D2445" d="M50.332,145.832c-0.567,0-1.11-0.323-1.363-0.872c-0.3-0.65-7.34-16.163-7.462-37.242     c-0.156-19.238,5.21-35.985,16.407-51.195c17.099-23.294,39.101-23.562,40.029-23.562c0.829,0,1.5,0.672,1.5,1.5     s-0.671,1.5-1.5,1.5c-0.21,0.001-21.451,0.321-37.612,22.339c-10.799,14.67-15.975,30.828-15.824,49.397     c0.119,20.401,7.117,35.854,7.187,36.008c0.346,0.752,0.017,1.643-0.735,1.989C50.755,145.788,50.542,145.832,50.332,145.832z"/>
		</g>
	</g>
</g>
</svg></g></svg>