<svg id="visual" viewBox="0 0 1280 540" width="1280" height="540" xmlns="http://www.w3.org/2000/svg" xmlns:xlink="http://www.w3.org/1999/xlink" version="1.1"><path d="M0 228L19.3 246.5C38.7 265 77.3 302 116.2 345.7C155 389.3 194 439.7 232.8 467.5C271.7 495.3 310.3 500.7 349 482.3C387.7 464 426.3 422 465.2 374.8C504 327.7 543 275.3 581.8 275.7C620.7 276 659.3 329 698.2 324.5C737 320 776 258 814.8 199.7C853.7 141.3 892.3 86.7 931 124C969.7 161.3 1008.3 290.7 1047.2 363.2C1086 435.7 1125 451.3 1163.8 408.7C1202.7 366 1241.3 265 1260.7 214.5L1280 164" fill="none" stroke-linecap="round" stroke-linejoin="miter" stroke="#FF834A" stroke-width="40"></path></svg>