<svg id="visual" viewBox="0 0 1280 540" width="1280" height="540" xmlns="http://www.w3.org/2000/svg" xmlns:xlink="http://www.w3.org/1999/xlink" version="1.1"><path d="M0 274L19.3 289.7C38.7 305.3 77.3 336.7 116.2 330.8C155 325 194 282 232.8 245.2C271.7 208.3 310.3 177.7 349 167.3C387.7 157 426.3 167 465.2 167C504 167 543 157 581.8 142.5C620.7 128 659.3 109 698.2 155C737 201 776 312 814.8 364.5C853.7 417 892.3 411 931 352.8C969.7 294.7 1008.3 184.3 1047.2 171.7C1086 159 1125 244 1163.8 289.2C1202.7 334.3 1241.3 339.7 1260.7 342.3L1280 345" fill="none" stroke-linecap="round" stroke-linejoin="miter" stroke="#ff8349" stroke-width="40"></path></svg>