<svg id="visual" viewBox="0 0 1280 540" width="1280" height="540" xmlns="http://www.w3.org/2000/svg" xmlns:xlink="http://www.w3.org/1999/xlink" version="1.1"><path d="M0 273L19.3 303.8C38.7 334.7 77.3 396.3 116.2 432.2C155 468 194 478 232.8 443.8C271.7 409.7 310.3 331.3 349 267.7C387.7 204 426.3 155 465.2 173.7C504 192.3 543 278.7 581.8 344.2C620.7 409.7 659.3 454.3 698.2 457.5C737 460.7 776 422.3 814.8 398.5C853.7 374.7 892.3 365.3 931 358.5C969.7 351.7 1008.3 347.3 1047.2 311.8C1086 276.3 1125 209.7 1163.8 192.3C1202.7 175 1241.3 207 1260.7 223L1280 239" fill="none" stroke-linecap="round" stroke-linejoin="miter" stroke="#FF423D" stroke-width="40"></path></svg>