<svg id="visual" viewBox="0 0 1280 540" width="1280" height="540" xmlns="http://www.w3.org/2000/svg" xmlns:xlink="http://www.w3.org/1999/xlink" version="1.1"><path d="M0 65L19.3 129.3C38.7 193.7 77.3 322.3 116.2 330.5C155 338.7 194 226.3 232.8 206.3C271.7 186.3 310.3 258.7 349 318.2C387.7 377.7 426.3 424.3 465.2 432.3C504 440.3 543 409.7 581.8 369.8C620.7 330 659.3 281 698.2 237C737 193 776 154 814.8 182.8C853.7 211.7 892.3 308.3 931 367.5C969.7 426.7 1008.3 448.3 1047.2 388.5C1086 328.7 1125 187.3 1163.8 121.7C1202.7 56 1241.3 66 1260.7 71L1280 76" fill="none" stroke-linecap="round" stroke-linejoin="miter" stroke="#FFBC57" stroke-width="40"></path></svg>